<svg id="Component_1_1" data-name="Component 1 – 1" xmlns="http://www.w3.org/2000/svg" width="467.878" height="386.646" viewBox="0 0 467.878 386.646">
  <path id="Path_16" data-name="Path 16" d="M1234.547,1330.22c14.6-26.187,18.392-43.518,27.706-56.479,10.969-15.264,26.88-24.605,38.047-38.914,20.566-26.352,14.269-21.353,24.2-32.669s44.352-52,33.907-26.827,3.341,17.509-16.286,39.593-37.445,37.1-53.7,62.912-10.179,21.083-22,35.833,2.609,5.906-21.169,28.429-38.766,18.073-27.095,5.366S1234.547,1330.22,1234.547,1330.22Z" transform="translate(236.187 1922.165) rotate(-135)" fill="#f6c87d"/>
  <path id="Path_18" data-name="Path 18" d="M1101.754,1647.033s-38.063,3.98,16.279-46.047,62.577-30.1,96.764-81.249,51.936-54.31,36.792-24.945-24.146,54.086-47.393,66.556-43.305,25.265-50.813,39.637-8.966,27.243-28.365,37.356S1101.754,1647.033,1101.754,1647.033Z" transform="translate(73.092 2143.4) rotate(-135)" fill="#f6c87d"/>
  <path id="Path_17" data-name="Path 17" d="M1101.754,1647.033s-38.063,3.98,16.279-46.047,62.577-30.1,96.764-81.249,51.936-54.31,36.792-24.945-24.146,54.086-47.393,66.556-43.305,25.265-50.813,39.637-8.966,27.243-28.365,37.356S1101.754,1647.033,1101.754,1647.033Z" transform="translate(-119.37 -1668.311) rotate(30)" fill="#f6c87d"/>
</svg>
