<svg id="Component_2_1" data-name="Component 2 – 1" xmlns="http://www.w3.org/2000/svg" width="579.265" height="469.646" viewBox="0 0 579.265 469.646">
  <path id="Path_12" data-name="Path 12" d="M1234.547,1330.22c14.6-26.187,18.392-43.518,27.706-56.479,10.969-15.264,26.88-24.605,38.047-38.914,20.566-26.352,14.269-21.353,24.2-32.669s44.352-52,33.907-26.827,3.341,17.509-16.286,39.593-37.445,37.1-53.7,62.912-10.179,21.083-22,35.833,2.609,5.906-21.169,28.429-38.766,18.073-27.095,5.366S1234.547,1330.22,1234.547,1330.22Z" transform="translate(476.573 1922.165) rotate(-135)" fill="#f6c87d"/>
  <path id="Path_15" data-name="Path 15" d="M1231.725,1289.578c12.587-19.656,15.851-32.665,23.879-42.394,9.454-11.457,23.167-18.469,32.791-29.209,17.725-19.78,12.3-16.028,20.855-24.522s38.225-39.035,29.223-20.137,2.879,13.143-14.036,29.719-32.272,27.849-46.28,47.223-8.773,15.825-18.958,26.9,2.249,4.433-18.245,21.34-33.411,13.566-23.352,4.028S1231.725,1289.578,1231.725,1289.578Z" transform="matrix(0.809, 0.588, -0.588, 0.809, -211.991, -1432.17)" fill="#f6c87d"/>
  <path id="Path_11" data-name="Path 11" d="M1176.084,1209.188c-6.5,18.053,15.591,10.481,28.933-4.551s22.368-26.056,29.568-50.366,20.454-25.736,23.978-28.258,11.308-3.7,10.309-14.94-2.857-6.865,8.647-31.878,28.122-41.128,31.79-62.021-15.5-5.858-36.337,28.05c-.917,1.492-19.447,25.583-20.334,27.079-18.111,30.525-7.222,30.107-24.965,45.275-18.56,15.867-15.859,18.612-28.965,36.693s-43.533,42.9-37.679,50.366S1182.585,1191.136,1176.084,1209.188Z" transform="translate(426.966 1886.396) rotate(-135)" fill="#f6c87d"/>
  <path id="Path_13" data-name="Path 13" d="M1101.754,1647.033s-38.063,3.98,16.279-46.047,62.577-30.1,96.764-81.249,51.936-54.31,36.792-24.945-24.146,54.086-47.393,66.556-43.305,25.265-50.813,39.637-8.966,27.243-28.365,37.356S1101.754,1647.033,1101.754,1647.033Z" transform="translate(184.478 2209.4) rotate(-135)" fill="#f6c87d"/>
  <path id="Path_14" data-name="Path 14" d="M1101.754,1647.033s-38.063,3.98,16.279-46.047,62.577-30.1,96.764-81.249,51.936-54.31,36.792-24.945-24.146,54.086-47.393,66.556-43.305,25.265-50.813,39.637-8.966,27.243-28.365,37.356S1101.754,1647.033,1101.754,1647.033Z" transform="translate(44.016 -1585.311) rotate(30)" fill="#f6c87d"/>
</svg>
